<svg xmlns="http://www.w3.org/2000/svg" viewBox="0 0 389.52 71.81"><defs><style>.cls-1{fill:#ff6c2f;}.cls-2{fill:#fff;}</style></defs><title>Asset 3</title><g id="Layer_2" data-name="Layer 2"><g id="Layer_1-2" data-name="Layer 1"><circle class="cls-1" cx="33.78" cy="12.62" r="12.14"/><path class="cls-1" d="M0,25.41v12A33.71,33.71,0,0,1,33.61,71.1H45.93A45.93,45.93,0,0,0,0,25.41Z"/><polygon class="cls-2" points="251.93 0.71 228.49 56.92 205.06 0.71 193.2 0.71 222.55 71.1 234.44 71.1 263.78 0.71 251.93 0.71"/><polygon class="cls-2" points="377 0.71 354.57 35.99 332.33 0.71 319.81 0.71 348.84 46.08 348.84 71.04 360.49 71.04 360.49 46.08 360.51 46.08 389.52 0.71 377 0.71"/><path class="cls-2" d="M319.1,10.41a36.41,36.41,0,0,0-51,0A34.67,34.67,0,0,0,257.71,35.9a34.66,34.66,0,0,0,10.41,25.49,36.39,36.39,0,0,0,51,0A34.66,34.66,0,0,0,329.51,35.9,34.67,34.67,0,0,0,319.1,10.41ZM293.61,60.87a25,25,0,1,1,25-25A25,25,0,0,1,293.61,60.87Z"/><path class="cls-2" d="M145.76,31.09a20,20,0,1,1,40.06,0c0,14.87.11,27.48,0,40h11.84V31.7a31.87,31.87,0,0,0-63.74,0V71.1h11.81C145.68,58.22,145.76,45.58,145.76,31.09Z"/><path class="cls-2" d="M129,35.9a34.67,34.67,0,0,0-10.41-25.49A34.67,34.67,0,0,0,93.12,0,34.67,34.67,0,0,0,67.63,10.41,34.67,34.67,0,0,0,57.22,35.9,34.66,34.66,0,0,0,67.63,61.39,34.64,34.64,0,0,0,93.12,71.81a34.64,34.64,0,0,0,25.49-10.42,34.54,34.54,0,0,0,8.62-13.8h-12a25,25,0,0,1-46.81-8.48h60.52C129,38.06,129,37,129,35.9Zm-35.9-25A25,25,0,0,1,116.8,28H69.45A24.94,24.94,0,0,1,93.12,10.94Z"/></g></g></svg>