<svg xmlns="http://www.w3.org/2000/svg" viewBox="0 0 92.38 16.5"><defs><style>.cls-1{fill:#fdfdfd;}</style></defs><title>Asset 1</title><g id="Layer_2" data-name="Layer 2"><g id="Layer_1-2" data-name="Layer 1"><path class="cls-1" d="M16.71,7A5.33,5.33,0,0,1,22,3a5.21,5.21,0,0,1,3.85,1.56A5.07,5.07,0,0,1,27.24,7ZM30,9.76a8.77,8.77,0,0,0,.11-1.38,7.84,7.84,0,0,0-2.36-5.76A7.84,7.84,0,0,0,22,.26a7.85,7.85,0,0,0-5.77,2.36,7.83,7.83,0,0,0-2.35,5.76,7.84,7.84,0,0,0,2.35,5.77A7.84,7.84,0,0,0,22,16.5a7.83,7.83,0,0,0,5.76-2.35A8,8,0,0,0,29.31,12H26.24A5.82,5.82,0,0,1,22,13.79a5.3,5.3,0,0,1-5.26-4Z"/><path class="cls-1" d="M75.31,8.15a5.43,5.43,0,1,0-10.86,0,5.43,5.43,0,1,0,10.86,0m2.72,0a7.88,7.88,0,0,1-2.37,5.79,8.26,8.26,0,0,1-11.56,0,7.87,7.87,0,0,1-2.36-5.79A7.83,7.83,0,0,1,64.1,2.37a8.26,8.26,0,0,1,11.56,0A7.84,7.84,0,0,1,78,8.15"/><path class="cls-1" d="M39.48,0a7.87,7.87,0,0,0-5.79,2.36,7.88,7.88,0,0,0-2.37,5.79v8.16H34V8.15a5.44,5.44,0,1,1,10.87,0v8.16h2.72V8.15a7.91,7.91,0,0,0-2.36-5.79A7.91,7.91,0,0,0,39.48,0"/><polygon class="cls-1" points="60.13 0.22 54.78 13.07 49.42 0.22 46.72 0.22 53.42 16.31 56.14 16.31 62.84 0.22 60.13 0.22"/><polygon class="cls-1" points="89.52 0.35 84.42 8.22 84.39 8.18 79.31 0.35 76.45 0.35 83.08 10.71 83.08 16.41 85.75 16.41 85.75 10.71 85.75 10.71 92.38 0.35 89.52 0.35"/><path class="cls-1" d="M0,5.68V8.59a7.92,7.92,0,0,1,5.34,2.35A7.9,7.9,0,0,1,7.68,16.3h2.91A10.73,10.73,0,0,0,7.38,8.89,10.74,10.74,0,0,0,0,5.68"/><path class="cls-1" d="M10.25,3.13A2.78,2.78,0,1,1,7.48.35a2.77,2.77,0,0,1,2.77,2.78"/></g></g></svg>