<svg id="Layer_1" data-name="Layer 1" xmlns="http://www.w3.org/2000/svg" viewBox="0 0 240 46"><defs><style>.cls-1{fill:#ff6c2f;}.cls-2{fill:#68478d;}</style></defs><title>logo-envoy</title><circle class="cls-1" cx="21.64" cy="8.77" r="7.42"/><path class="cls-1" d="M1,16.59V23.9A20.59,20.59,0,0,1,21.53,44.5h7.53A28.06,28.06,0,0,0,1,16.59Z"/><polygon class="cls-2" points="154.93 1.5 140.61 35.84 126.29 1.5 119.05 1.5 136.98 44.51 144.24 44.51 162.17 1.5 154.93 1.5"/><polygon class="cls-2" points="231.35 1.5 217.64 23.05 204.06 1.5 196.4 1.5 214.14 29.22 214.14 44.47 221.26 44.47 221.26 29.22 221.28 29.22 239 1.5 231.35 1.5"/><path class="cls-2" d="M196,7.43a22.25,22.25,0,0,0-31.15,0A21.18,21.18,0,0,0,158.46,23a21.18,21.18,0,0,0,6.36,15.57,22.25,22.25,0,0,0,31.15,0A21.18,21.18,0,0,0,202.33,23,21.18,21.18,0,0,0,196,7.43ZM180.4,38.25A15.25,15.25,0,1,1,195.65,23,15.25,15.25,0,0,1,180.4,38.25Z"/><path class="cls-2" d="M90.06,20.06a12.24,12.24,0,1,1,24.48,0c0,9.09.07,16.79,0,24.45h7.23V20.43a19.47,19.47,0,0,0-38.94,0V44.5h7.22C90,36.63,90.06,28.92,90.06,20.06Z"/><path class="cls-2" d="M79.83,23A21.18,21.18,0,0,0,73.47,7.43,21.18,21.18,0,0,0,57.9,1.06,21.18,21.18,0,0,0,42.32,7.43,21.18,21.18,0,0,0,36,23a21.18,21.18,0,0,0,6.36,15.57A21.18,21.18,0,0,0,57.9,44.94a21.18,21.18,0,0,0,15.58-6.36,21.14,21.14,0,0,0,5.26-8.43H71.37A15.25,15.25,0,0,1,42.77,25h37C79.8,24.32,79.83,23.66,79.83,23ZM57.9,7.75A15.25,15.25,0,0,1,72.36,18.17H43.43A15.25,15.25,0,0,1,57.9,7.75Z"/></svg>